<svg version="1.1" xmlns="http://www.w3.org/2000/svg" xmlns:xlink="http://www.w3.org/1999/xlink" x="0px" y="0px" viewBox="0 0 377.3 377.8" width="120" height="120">
<rect class="st1" width="377.1" height="377.5" fill="#fff"/>
<rect class="st2" width="377.1" height="377.5" fill="#70F3A7"/>
<rect x="114.9" y="107.4" class="st3" width="157.4" height="184.6" fill="#F7BF9C"/>
<rect x="153" y="292" class="st4" width="81.6" height="16.7" fill="#E7A489"/>
<rect x="95.6" y="221.4" class="st3" width="19.3" height="52.6" fill="#F7BF9C"/>
<rect x="272.3" y="203.9" class="st3" width="19.3" height="52.6" fill="#F7BF9C"/>
<path class="st5" d="M115.3,8.8h37.9v18h20v17.3h19.3V26.7h19.3v-18h40.8v18h20v17.3h38.1v17.8H330v34.9h-19.3v18.2H330v18h19.3v17.8H330v35.1h-38.4v18.2h-19.3v-53.3H235v-17.8h-23.2v-18h-58.5v18h-20.4v36h-18v52.8H95.6v-35.7H76.1v17.3H56.8v-34.4H38.1v-36h18.6v-18H38.1V79.4h18.6V62.3h20V44.1h19.1V26.7h19.5V8.8z" fill="#252837"/>
<rect x="234.6" y="114.9" class="st6" width="18.4" height="18.4" fill="#F6BF9D"/>
<rect x="133.3" y="185.5" class="st5" width="19.7" height="18.4" fill="#252837"/>
<path class="st5" d="M153,317.5h81.6V292h19.7v25.4h43.4v26.3H317v13.6h18.1v20.2H52v-20.2h17.7v-13.6h16.2v-26.3h47.4V292H153V317.5z" fill="#252837"/>
<rect x="113.6" y="317.5" class="st7" width="19.7" height="26.3" fill="#D69A29"/>
<rect x="234.6" y="330.2" class="st8" width="19.7" height="13.6" fill="#FCDA6E"/>
<rect x="234.1" y="343.8" class="st7" width="20.2" height="13.6" fill="#D69A29"/>
<rect x="204.3" y="356.9" class="st8" width="29.8" height="13.6" fill="#FCDA6E"/>
<rect x="153" y="308.7" class="st9" width="81.6" height="21.5" fill="#090A0C"/>
<rect x="184.2" y="356.9" class="st7" width="20.2" height="20.6" fill="#D69A29"/>
<rect x="153.5" y="356.9" class="st8" width="30.7" height="13.6" fill="#FCDA6E"/>
<rect x="133.3" y="343.8" class="st7" width="20.2" height="13.6" fill="#D69A29"/>
<rect x="133.3" y="330.2" class="st8" width="20.2" height="13.6" fill="#FCDA6E"/>
<rect x="254.3" y="330.2" class="st7" width="19.7" height="13.6" fill="#D69A29"/>
<rect x="254.3" y="317.5" class="st7" width="19.7" height="13.6" fill="#D69A29"/>
<rect x="75.9" y="185.9" class="st4" width="19.7" height="52.6" fill="#E7A489"/>
<rect x="291.6" y="185.5" class="st4" width="19.3" height="53.1" fill="#E7A489"/>
<rect x="95.6" y="238.5" class="st4" width="19.3" height="35.5" fill="#E7A489"/>
<rect x="272.3" y="238.5" class="st4" width="19.3" height="35.5" fill="#E7A489"/>
<rect x="114.9" y="274" class="st4" width="18.4" height="18" fill="#E7A489"/>
<rect x="254.3" y="274" class="st4" width="18" height="18" fill="#E7A489"/>
<rect x="171.9" y="239" class="st4" width="44.3" height="18.4" fill="#E7A489"/>
<rect x="234.6" y="185.5" class="st5" width="19.7" height="18.4" fill="#252837"/>
</svg>